<?xml version="1.0" encoding="iso-8859-1"?>

<!DOCTYPE svg PUBLIC "-//W3C//DTD SVG 1.1//EN" "http://www.w3.org/Graphics/SVG/1.1/DTD/svg11.dtd">
<!-- Uploaded to: SVG Repo, www.svgrepo.com, Generator: SVG Repo Mixer Tools -->
<svg height="800px" width="800px" version="1.1" id="_x36_" xmlns="http://www.w3.org/2000/svg" xmlns:xlink="http://www.w3.org/1999/xlink" 
	 viewBox="0 0 512 512"  xml:space="preserve">
<g>
	
		<linearGradient id="SVGID_1_" gradientUnits="userSpaceOnUse" x1="196.7841" y1="175.9584" x2="584.3161" y2="335.6685" gradientTransform="matrix(0.9999 0.0111 -0.0111 0.9999 -1.2682 -10.299)">
		<stop  offset="0" style="stop-color:#F0F0F0"/>
		<stop  offset="1" style="stop-color:#FFFFFF"/>
	</linearGradient>
	<path style="fill:url(#SVGID_1_);" d="M477.191,276.068l-72.824-0.806c51.515-23.9,86.683-77.28,83.483-138.73
		c-2.148-41.228-22.079-78.133-52.188-103.168l0.013-0.012c-8.37-6.927-17.46-12.896-27.142-17.839
		c-16.479-8.371-34.667-13.666-53.867-15.104c-64.298-4.774-120.746,32.774-143.989,87.969c0.005,0.001,0.011,0.003,0.016,0.003
		c-1.684,4.001-3.189,8.093-4.514,12.269c-0.4-0.064-0.81-0.093-1.211-0.152c0.394,0.057,0.796,0.085,1.189,0.145
		c1.336-4.176,2.864-8.286,4.52-12.265c-5.855-1.097-11.974-1.744-18.163-1.813C134.62,85.924,87.101,132.338,86.46,190.234
		c-0.033,2.965,0.128,5.933,0.288,8.901c-6.685-1.944-14.028-2.541-21.584-1.529c-23.313,3.288-41.839,22.556-44.225,45.936
		c-1.083,10.434,0.936,20.321,5.226,28.815c-14.874,3.962-25.986,17.509-26.164,33.627c-0.024,2.128,0.147,4.193,0.512,6.196
		c2.354,14.469,13.704,26.008,28.117,28.746c1.994,0.409,4.055,0.625,6.183,0.649l84.78,0.938l0.002-0.002l356.816,3.948
		c19.358,0.214,35.371-15.449,35.585-34.807C512.212,292.295,496.549,276.282,477.191,276.068z M100.975,216.583l-9.373-2.676
		l9.372,2.658L100.975,216.583z M66.958,210.394c2.002-0.3,4.003-0.407,6.001-0.385c2.21,0.024,4.438,0.315,6.662,0.735
		c-2.215-0.413-4.446-0.704-6.689-0.729c-1.977-0.022-3.987,0.11-5.967,0.387c-6.543,0.918-12.596,3.529-17.702,7.358
		C54.366,213.925,60.417,211.313,66.958,210.394z M37.706,266.541l2.367,4.682l-2.365-4.669c-0.187-0.373-0.303-0.772-0.478-1.149
		C37.404,265.778,37.52,266.173,37.706,266.541z M26.021,286.071c-4.755,2.158-8.513,5.926-10.781,10.498
		C17.501,291.986,21.254,288.216,26.021,286.071z M26.953,327.044c-0.213-0.085-0.449-0.121-0.658-0.213
		C26.504,326.923,26.74,326.959,26.953,327.044z M30.461,328.177c1.446,0.313,2.943,0.486,4.479,0.503l97.687,1.081l-0.002,0.002
		l-97.667-1.081C33.415,328.665,31.912,328.491,30.461,328.177z"/>
	<path style="fill:#F3A699;" d="M435.675,33.351L309.868,156.404c-6.265,0.962-12.345,2.636-18.045,5.023
		c-11.065-37.263-42.28-65.785-81.145-73.05c23.243-55.195,79.691-92.742,143.989-87.969c19.199,1.438,37.388,6.733,53.867,15.104
		C418.215,20.455,427.305,26.424,435.675,33.351z"/>
	
		<linearGradient id="SVGID_2_" gradientUnits="userSpaceOnUse" x1="108.9091" y1="417.3145" x2="108.9091" y2="220.9468" gradientTransform="matrix(0.9999 0.0111 -0.0111 0.9999 -1.2682 -10.299)">
		<stop  offset="0" style="stop-color:#D2D0CF"/>
		<stop  offset="1" style="stop-color:#FFFFFF"/>
	</linearGradient>
	<path style="fill:url(#SVGID_2_);" d="M210.678,88.377c-1.656,3.979-3.184,8.089-4.52,12.265
		c-4.506-0.695-9.079-1.132-13.786-1.184c-50.739-0.562-92.392,40.18-92.954,90.919c-0.029,2.643,0.007,5.223,0.236,7.804
		l1.344,18.392l-17.741-5.032c-3.406-1.005-6.883-1.495-10.299-1.533c-1.999-0.022-3.999,0.085-6.001,0.385
		c-17.436,2.451-31.395,16.933-33.202,34.516c-0.792,7.471,0.608,14.966,3.952,21.644l7.193,14.201L29.51,284.84
		c-9.7,2.537-16.503,11.295-16.613,21.288c-0.136,12.314,9.746,22.418,22.061,22.554l97.674,1.081l-13.037,12.752l-84.78-0.938
		c-2.128-0.023-4.189-0.24-6.183-0.649c-14.413-2.738-25.763-14.277-28.117-28.746c-0.365-2.003-0.535-4.068-0.512-6.196
		c0.178-16.118,11.29-29.664,26.164-33.627c-4.291-8.494-6.309-18.382-5.226-28.815c2.386-23.38,20.912-42.648,44.225-45.936
		c7.555-1.012,14.899-0.416,21.584,1.529c-0.161-2.968-0.321-5.936-0.288-8.901c0.641-57.896,48.16-104.311,106.055-103.67
		C198.704,86.633,204.823,87.28,210.678,88.377z"/>
	<path style="fill:#F09686;" d="M279.48,165.083l4.086,13.706l5.92-2.455l20.389-19.943c-6.28,0.973-12.332,2.645-18.035,5.009
		c-11.089-37.205-42.309-65.791-81.137-73.044c-1.688,4.008-3.196,8.109-4.522,12.293
		C240.686,106.198,269.253,130.761,279.48,165.083z"/>
	
		<linearGradient id="SVGID_3_" gradientUnits="userSpaceOnUse" x1="260.8308" y1="417.3005" x2="260.8308" y2="220.9267" gradientTransform="matrix(0.9999 0.0111 -0.0111 0.9999 -1.2682 -10.299)">
		<stop  offset="0" style="stop-color:#D2D0CF"/>
		<stop  offset="1" style="stop-color:#FFFFFF"/>
	</linearGradient>
	<path style="fill:url(#SVGID_3_);" d="M279.48,165.083l4.086,13.706l5.92-2.455l20.389-19.943
		c-6.28,0.973-12.332,2.645-18.035,5.009c-11.089-37.205-42.309-65.791-81.137-73.044c-1.688,4.008-3.196,8.109-4.522,12.293
		C240.686,106.198,269.253,130.761,279.48,165.083z"/>
	
		<linearGradient id="SVGID_4_" gradientUnits="userSpaceOnUse" x1="126.2015" y1="417.3179" x2="126.2015" y2="220.9341" gradientTransform="matrix(0.9999 0.0111 -0.0111 0.9999 -1.2682 -10.299)">
		<stop  offset="0" style="stop-color:#D2D0CF"/>
		<stop  offset="1" style="stop-color:#FFFFFF"/>
	</linearGradient>
	<path style="fill:url(#SVGID_4_);" d="M199.608,152.093c-0.939-18.026,1.466-35.341,6.572-51.443
		c-4.52-0.727-9.131-1.162-13.827-1.214c-50.702-0.561-92.404,40.234-92.965,90.936c-0.029,2.632,0.062,5.236,0.247,7.814
		l1.339,18.398l-17.739-5.064c-3.365-0.96-6.835-1.467-10.304-1.506c-1.977-0.022-3.987,0.11-5.967,0.387
		c-17.457,2.448-31.432,16.95-33.226,34.479c-0.776,7.513,0.602,15.003,3.967,21.661l7.179,14.197l-15.372,4.086
		c-9.682,2.572-16.522,11.334-16.633,21.307c-0.136,12.296,9.758,22.411,22.06,22.547l97.687,1.081l98.144-95.995
		C212.662,210.978,201.205,182.738,199.608,152.093z"/>
	
		<linearGradient id="SVGID_5_" gradientUnits="userSpaceOnUse" x1="211.9711" y1="33.9765" x2="162.0002" y2="174.2174" gradientTransform="matrix(0.9999 0.0111 -0.0111 0.9999 -1.2682 -10.299)">
		<stop  offset="0" style="stop-color:#D2D0CF"/>
		<stop  offset="1" style="stop-color:#FFFFFF"/>
	</linearGradient>
	<path style="opacity:0.3;fill:url(#SVGID_5_);" d="M199.608,152.093c-0.939-18.026,1.466-35.341,6.572-51.443
		c-4.52-0.727-9.131-1.162-13.827-1.214c-50.702-0.561-92.404,40.234-92.965,90.936c-0.029,2.632,0.062,5.236,0.247,7.814
		l1.339,18.398l-17.739-5.064c-3.365-0.96-6.835-1.467-10.304-1.506c-1.977-0.022-3.987,0.11-5.967,0.387
		c-17.457,2.448-31.432,16.95-33.226,34.479c-0.776,7.513,0.602,15.003,3.967,21.661l7.179,14.197l-15.372,4.086
		c-9.682,2.572-16.522,11.334-16.633,21.307c-0.136,12.296,9.758,22.411,22.06,22.547l97.687,1.081l98.144-95.995
		C212.662,210.978,201.205,182.738,199.608,152.093z"/>
	<path style="fill:#F09686;" d="M199.608,152.093c1.596,30.645,13.054,58.885,31.162,81.672l58.715-57.43l-5.92,2.455l-4.086-13.706
		c-10.226-34.323-38.794-58.886-73.299-64.434C201.074,116.752,198.669,134.067,199.608,152.093z"/>
	
		<linearGradient id="SVGID_6_" gradientUnits="userSpaceOnUse" x1="247.5999" y1="417.308" x2="247.5999" y2="220.9307" gradientTransform="matrix(0.9999 0.0111 -0.0111 0.9999 -1.2682 -10.299)">
		<stop  offset="0" style="stop-color:#D2D0CF"/>
		<stop  offset="1" style="stop-color:#FFFFFF"/>
	</linearGradient>
	<path style="fill:url(#SVGID_6_);" d="M199.608,152.093c1.596,30.645,13.054,58.885,31.162,81.672l58.715-57.43l-5.92,2.455
		l-4.086-13.706c-10.226-34.323-38.794-58.886-73.299-64.434C201.074,116.752,198.669,134.067,199.608,152.093z"/>
	
		<linearGradient id="SVGID_7_" gradientUnits="userSpaceOnUse" x1="17.652" y1="175.0627" x2="503.9311" y2="175.0627" gradientTransform="matrix(0.9999 0.0111 -0.0111 0.9999 -1.2682 -10.299)">
		<stop  offset="0" style="stop-color:#D2D0CF"/>
		<stop  offset="1" style="stop-color:#FFFFFF"/>
	</linearGradient>
	<path style="opacity:0.3;fill:url(#SVGID_7_);" d="M199.608,152.093c1.596,30.645,13.054,58.885,31.162,81.672l58.715-57.43
		l-5.92,2.455l-4.086-13.706c-10.226-34.323-38.794-58.886-73.299-64.434C201.074,116.752,198.669,134.067,199.608,152.093z"/>
	<path style="fill:#F09686;" d="M334.309,156.35c34.769,5.273,62.201,33.865,66.125,68.812c2.064,18.385-2.182,35.646-10.821,49.938
		l14.755,0.163c51.515-23.9,86.684-77.28,83.483-138.73c-2.147-41.23-22.081-78.136-52.192-103.171L309.875,156.391
		C317.708,155.178,325.904,155.075,334.309,156.35z"/>
	<path style="fill:#EDEDEC;" d="M511.998,311.654c0.214-19.358-15.449-35.371-34.807-35.586l-72.824-0.806
		c-11.526,5.348-23.865,9.212-36.784,11.362l-0.676,1.118l110.143,1.219c12.296,0.136,22.19,10.251,22.054,22.55
		c-0.136,12.296-10.251,22.19-22.547,22.054l-343.93-3.806l-13.037,12.752l356.823,3.948
		C495.77,346.674,511.783,331.012,511.998,311.654z"/>
	<path style="fill:#F8F6E7;" d="M400.434,225.161c-3.924-34.947-31.356-63.538-66.125-68.812
		c-8.405-1.275-16.601-1.172-24.434,0.042l-20.389,19.943l7.289-3.022c8.243-3.416,16.989-5.098,25.986-4.999
		c3.186,0.035,6.419,0.298,9.613,0.783c28.766,4.364,51.998,28.546,55.242,57.503c1.668,14.825-1.458,29.289-9.039,41.83
		l-10.992,18.194c12.919-2.151,25.258-6.015,36.784-11.362l-14.755-0.163C398.252,260.807,402.497,243.546,400.434,225.161z"/>
	
		<linearGradient id="SVGID_8_" gradientUnits="userSpaceOnUse" x1="264.5325" y1="267.5515" x2="530.4993" y2="377.162" gradientTransform="matrix(0.9999 0.0111 -0.0111 0.9999 -1.2682 -10.299)">
		<stop  offset="0" style="stop-color:#F0F0F0"/>
		<stop  offset="1" style="stop-color:#FFFFFF"/>
	</linearGradient>
	<path style="fill:url(#SVGID_8_);" d="M477.05,288.962l-110.143-1.219l0.676-1.118l10.992-18.194
		c7.582-12.541,10.707-27.005,9.039-41.83c-3.244-28.957-26.476-53.139-55.242-57.503c-3.193-0.486-6.427-0.748-9.613-0.783
		c-8.997-0.1-17.743,1.583-25.986,4.999l-7.289,3.022l-58.715,57.43l-98.144,95.995l343.93,3.806
		c12.296,0.136,22.411-9.758,22.547-22.054C499.24,299.213,489.347,289.098,477.05,288.962z"/>
</g>
</svg>